<svg width="0" height="0" class="hidden">
  <symbol fill="none" xmlns="http://www.w3.org/2000/svg" viewBox="0 0 18 18" id="eye">
    <path d="M0.75 9C0.75 9 3.75 3 9 3C14.25 3 17.25 9 17.25 9C17.25 9 14.25 15 9 15C3.75 15 0.75 9 0.75 9Z" stroke="#1D1E21" stroke-width="1.5" stroke-linecap="round" stroke-linejoin="round"></path>
    <path d="M9 11.25C10.2426 11.25 11.25 10.2426 11.25 9C11.25 7.75736 10.2426 6.75 9 6.75C7.75736 6.75 6.75 7.75736 6.75 9C6.75 10.2426 7.75736 11.25 9 11.25Z" stroke="#1D1E21" stroke-width="1.5" stroke-linecap="round" stroke-linejoin="round"></path>
  </symbol>
  <symbol fill="none" xmlns="http://www.w3.org/2000/svg" viewBox="0 0 18 18" id="eye-off">
    <g clip-path="url(#clip0_1470_487)">
      <path d="M13.455 13.455C12.1729 14.4323 10.6118 14.9737 9 15C3.75 15 0.75 9.00002 0.75 9.00002C1.68292 7.26144 2.97685 5.74247 4.545 4.54502M7.425 3.18002C7.94125 3.05918 8.4698 2.99877 9 3.00002C14.25 3.00002 17.25 9.00002 17.25 9.00002C16.7947 9.85172 16.2518 10.6536 15.63 11.3925M10.59 10.59C10.384 10.8111 10.1356 10.9884 9.85961 11.1114C9.58362 11.2343 9.28568 11.3005 8.98357 11.3058C8.68146 11.3111 8.38137 11.2555 8.10121 11.1424C7.82104 11.0292 7.56654 10.8608 7.35288 10.6471C7.13923 10.4335 6.97079 10.179 6.85763 9.89881C6.74447 9.61865 6.68889 9.31856 6.69423 9.01645C6.69956 8.71434 6.76568 8.4164 6.88866 8.1404C7.01163 7.86441 7.18894 7.61601 7.41 7.41002" stroke="#1D1E21" stroke-width="1.5" stroke-linecap="round" stroke-linejoin="round"></path>
      <path d="M0.75 0.75L17.25 17.25" stroke="#1D1E21" stroke-width="1.5" stroke-linecap="round" stroke-linejoin="round"></path>
    </g>
    <defs>
      <clipPath id="clip0_1470_487">
        <rect width="18" height="18" fill="white"></rect>
      </clipPath>
    </defs>
  </symbol>
  <symbol fill="none" xmlns="http://www.w3.org/2000/svg" viewBox="0 0 2 12" id="Vector">
    <path d="M1 0V12" stroke="#1D1E21" stroke-opacity="0.4"></path>
  </symbol>
  <symbol fill="none" xmlns="http://www.w3.org/2000/svg" viewBox="0 0 32 32" id="menu-burger">
    <path d="M4 8.00134H28M4 16.0013H28M4 24.0013H28" stroke="#1D1E21" stroke-width="2" stroke-linecap="round" stroke-linejoin="round"></path>
  </symbol>
  <symbol fill="none" xmlns="http://www.w3.org/2000/svg" viewBox="0 0 32 32" id="x">
    <path d="M24 8L8 24" stroke="#1D1E21" stroke-width="2" stroke-linecap="round" stroke-linejoin="round"></path>
    <path d="M8 8L24 24" stroke="#1D1E21" stroke-width="2" stroke-linecap="round" stroke-linejoin="round"></path>
  </symbol>
  <symbol fill="none" xmlns="http://www.w3.org/2000/svg" viewBox="0 0 14 14" id="ic_round-dashboard">
    <path d="M2.39216 7.57557H5.84671C6.16338 7.57557 6.42247 7.31648 6.42247 6.99981V2.39375C6.42247 2.07708 6.16338 1.81799 5.84671 1.81799H2.39216C2.0755 1.81799 1.81641 2.07708 1.81641 2.39375V6.99981C1.81641 7.31648 2.0755 7.57557 2.39216 7.57557ZM2.39216 12.1816H5.84671C6.16338 12.1816 6.42247 11.9225 6.42247 11.6059V9.30284C6.42247 8.98618 6.16338 8.72709 5.84671 8.72709H2.39216C2.0755 8.72709 1.81641 8.98618 1.81641 9.30284V11.6059C1.81641 11.9225 2.0755 12.1816 2.39216 12.1816ZM8.14974 12.1816H11.6043C11.921 12.1816 12.18 11.9225 12.18 11.6059V6.99981C12.18 6.68315 11.921 6.42405 11.6043 6.42405H8.14974C7.83307 6.42405 7.57398 6.68315 7.57398 6.99981V11.6059C7.57398 11.9225 7.83307 12.1816 8.14974 12.1816ZM7.57398 2.39375V4.69678C7.57398 5.01345 7.83307 5.27254 8.14974 5.27254H11.6043C11.921 5.27254 12.18 5.01345 12.18 4.69678V2.39375C12.18 2.07708 11.921 1.81799 11.6043 1.81799H8.14974C7.83307 1.81799 7.57398 2.07708 7.57398 2.39375Z" fill="currentColor"></path>
  </symbol>
  <symbol fill="none" xmlns="http://www.w3.org/2000/svg" viewBox="0 0 14 14" id="ic_round-shopping-cart">
    <g clip-path="url(#clip0_1459_867)">
      <path d="M4.12251 10.4546C3.48918 10.4546 2.97676 10.9727 2.97676 11.6061C2.97676 12.2394 3.48918 12.7576 4.12251 12.7576C4.75585 12.7576 5.27403 12.2394 5.27403 11.6061C5.27403 10.9727 4.75585 10.4546 4.12251 10.4546ZM0.667969 1.81819C0.667969 2.13486 0.92706 2.39395 1.24373 2.39395H1.81948L3.89221 6.76395L3.11494 8.1688C2.69464 8.94031 3.24736 9.8788 4.12251 9.8788H10.4558C10.7725 9.8788 11.0316 9.61971 11.0316 9.30304C11.0316 8.98637 10.7725 8.72728 10.4558 8.72728H4.12251L4.75585 7.57577H9.04524C9.47706 7.57577 9.85706 7.3397 10.0528 6.98274L12.114 3.24607C12.1626 3.1588 12.1874 3.06037 12.1862 2.96052C12.1851 2.86068 12.1578 2.76288 12.1072 2.6768C12.0566 2.59071 11.9844 2.51934 11.8977 2.46973C11.8111 2.42012 11.713 2.394 11.6131 2.39395H3.09191L2.70615 1.57061C2.65988 1.47234 2.58656 1.38927 2.49479 1.33115C2.40302 1.27303 2.2966 1.24226 2.18797 1.24243H1.24373C0.92706 1.24243 0.667969 1.50152 0.667969 1.81819ZM9.88009 10.4546C9.24676 10.4546 8.73433 10.9727 8.73433 11.6061C8.73433 12.2394 9.24676 12.7576 9.88009 12.7576C10.5134 12.7576 11.0316 12.2394 11.0316 11.6061C11.0316 10.9727 10.5134 10.4546 9.88009 10.4546Z" fill="currentColor"></path>
    </g>
    <defs>
      <clipPath id="clip0_1459_867">
        <rect width="13.8182" height="13.8182" fill="white" transform="translate(0.0917969 0.0909424)"></rect>
      </clipPath>
    </defs>
  </symbol>
  <symbol fill="none" xmlns="http://www.w3.org/2000/svg" viewBox="0 0 14 14" id="mdi_local-pharmacy">
    <g clip-path="url(#clip0_1459_877)">
      <path d="M9.30321 8.15147H7.57593V9.87875H6.42442V8.15147H4.69715V6.99996H6.42442V5.27269H7.57593V6.99996H9.30321M12.182 2.96966H10.6562L11.3184 1.15602L9.96533 0.666626L9.12472 2.96966H1.81836V4.12117L2.96987 7.57572L1.81836 11.0303V12.1818H12.182V11.0303L11.0305 7.57572L12.182 4.12117V2.96966Z" fill="currentColor"></path>
    </g>
    <defs>
      <clipPath id="clip0_1459_877">
        <rect width="13.8182" height="13.8182" fill="white" transform="translate(0.0917969 0.0908813)"></rect>
      </clipPath>
    </defs>
  </symbol>
  <symbol fill="none" xmlns="http://www.w3.org/2000/svg" viewBox="0 0 14 14" id="mdi_users">
    <path d="M9.30475 9.87874V11.0303H1.24414V9.87874C1.24414 9.87874 1.24414 7.57571 5.27444 7.57571C9.30475 7.57571 9.30475 9.87874 9.30475 9.87874ZM7.2896 4.40904C7.2896 4.01048 7.17141 3.62087 6.94998 3.28948C6.72855 2.95809 6.41383 2.69981 6.04561 2.54728C5.67739 2.39476 5.27221 2.35486 4.88131 2.43261C4.49041 2.51037 4.13134 2.70229 3.84952 2.98411C3.56769 3.26594 3.37577 3.625 3.29801 4.01591C3.22026 4.40681 3.26016 4.81199 3.41269 5.18021C3.56521 5.54843 3.8235 5.86315 4.15489 6.08458C4.48628 6.30601 4.87588 6.42419 5.27444 6.42419C5.8089 6.42419 6.32146 6.21188 6.69937 5.83397C7.07728 5.45606 7.2896 4.94349 7.2896 4.40904ZM9.2702 7.57571C9.62415 7.84962 9.91377 8.19778 10.1187 8.59567C10.3236 8.99356 10.4388 9.43152 10.4563 9.87874V11.0303H12.7593V9.87874C12.7593 9.87874 12.7593 7.78874 9.2702 7.57571ZM8.72899 2.39389C8.33269 2.39168 7.9451 2.51017 7.61778 2.73359C7.96752 3.22225 8.15557 3.80812 8.15557 4.40904C8.15557 5.00997 7.96752 5.59583 7.61778 6.0845C7.9451 6.30792 8.33269 6.4264 8.72899 6.42419C9.26344 6.42419 9.776 6.21188 10.1539 5.83397C10.5318 5.45606 10.7441 4.94349 10.7441 4.40904C10.7441 3.87459 10.5318 3.36203 10.1539 2.98411C9.776 2.6062 9.26344 2.39389 8.72899 2.39389Z" fill="currentColor"></path>
  </symbol>
  <symbol fill="none" xmlns="http://www.w3.org/2000/svg" viewBox="0 0 14 14" id="mingcute_flask-fill">
    <g clip-path="url(#clip0_1459_871)">
      <path d="M8.729 5.63604V2.39395H9.30476C9.45746 2.39395 9.6039 2.33329 9.71188 2.22531C9.81985 2.11734 9.88051 1.97089 9.88051 1.81819C9.88051 1.66549 9.81985 1.51904 9.71188 1.41107C9.6039 1.30309 9.45746 1.24243 9.30476 1.24243H4.69869C4.54599 1.24243 4.39955 1.30309 4.29157 1.41107C4.1836 1.51904 4.12294 1.66549 4.12294 1.81819C4.12294 1.97089 4.1836 2.11734 4.29157 2.22531C4.39955 2.33329 4.54599 2.39395 4.69869 2.39395H5.27445V5.63604L2.26497 10.0584C1.48482 11.2053 2.30642 12.7576 3.69285 12.7576H10.31C11.6976 12.7576 12.5186 11.2053 11.7379 10.0584L8.729 5.63661V5.63604Z" fill="currentColor"></path>
    </g>
    <defs>
      <clipPath id="clip0_1459_871">
        <rect width="13.8182" height="13.8182" fill="white" transform="translate(0.0917969 0.0909424)"></rect>
      </clipPath>
    </defs>
  </symbol>
  <symbol fill="none" xmlns="http://www.w3.org/2000/svg" viewBox="0 0 14 14" id="logout">
    <path fill-rule="evenodd" clip-rule="evenodd" d="M3.54563 1.2424C3.08753 1.2424 2.64819 1.42438 2.32427 1.74831C2.00034 2.07223 1.81836 2.51157 1.81836 2.96967V11.0303C1.81836 11.4884 2.00034 11.9277 2.32427 12.2516C2.64819 12.5756 3.08753 12.7576 3.54563 12.7576H7.00018C7.45828 12.7576 7.89762 12.5756 8.22154 12.2516C8.54547 11.9277 8.72745 11.4884 8.72745 11.0303V2.96967C8.72745 2.51157 8.54547 2.07223 8.22154 1.74831C7.89762 1.42438 7.45828 1.2424 7.00018 1.2424H3.54563ZM9.4719 4.28989C9.57987 4.18195 9.72629 4.12131 9.87897 4.12131C10.0316 4.12131 10.1781 4.18195 10.286 4.28989L12.5891 6.59292C12.697 6.70089 12.7576 6.84731 12.7576 6.99998C12.7576 7.15265 12.697 7.29907 12.5891 7.40704L10.286 9.71007C10.1774 9.81495 10.032 9.87298 9.88104 9.87167C9.73008 9.87036 9.58567 9.8098 9.47892 9.70305C9.37217 9.5963 9.31162 9.4519 9.3103 9.30093C9.30899 9.14997 9.36703 9.00454 9.4719 8.89595L10.7921 7.57573H5.84866C5.69596 7.57573 5.54952 7.51507 5.44154 7.4071C5.33356 7.29912 5.2729 7.15268 5.2729 6.99998C5.2729 6.84728 5.33356 6.70083 5.44154 6.59285C5.54952 6.48488 5.69596 6.42422 5.84866 6.42422H10.7921L9.4719 5.10401C9.36397 4.99604 9.30333 4.84962 9.30333 4.69695C9.30333 4.54428 9.36397 4.39786 9.4719 4.28989Z" fill="white"></path>
  </symbol>
  <symbol fill="none" xmlns="http://www.w3.org/2000/svg" viewBox="0 0 18 18" id="ci_users">
    <path d="M15.75 15C15.75 13.6935 14.4975 12.5827 12.75 12.1702M11.25 15C11.25 13.3425 9.2355 12 6.75 12C4.2645 12 2.25 13.3425 2.25 15M11.25 9.75C12.0456 9.75 12.8087 9.43393 13.3713 8.87132C13.9339 8.30871 14.25 7.54565 14.25 6.75C14.25 5.95435 13.9339 5.19129 13.3713 4.62868C12.8087 4.06607 12.0456 3.75 11.25 3.75M6.75 9.75C5.95435 9.75 5.19129 9.43393 4.62868 8.87132C4.06607 8.30871 3.75 7.54565 3.75 6.75C3.75 5.95435 4.06607 5.19129 4.62868 4.62868C5.19129 4.06607 5.95435 3.75 6.75 3.75C7.54565 3.75 8.30871 4.06607 8.87132 4.62868C9.43393 5.19129 9.75 5.95435 9.75 6.75C9.75 7.54565 9.43393 8.30871 8.87132 8.87132C8.30871 9.43393 7.54565 9.75 6.75 9.75Z" stroke="#1D1E21" stroke-width="1.5" stroke-linecap="round" stroke-linejoin="round"></path>
  </symbol>
  <symbol fill="none" xmlns="http://www.w3.org/2000/svg" viewBox="0 0 18 18" id="streamline_money-cash-coins">
    <g clip-path="url(#clip0_20_6632)">
      <path d="M11.5709 9.64286C14.7662 9.64286 17.3566 8.49159 17.3566 7.07143C17.3566 5.65127 14.7662 4.5 11.5709 4.5C8.37551 4.5 5.78516 5.65127 5.78516 7.07143C5.78516 8.49159 8.37551 9.64286 11.5709 9.64286Z" stroke="#1D1E21" stroke-width="1.5" stroke-linecap="round" stroke-linejoin="round"></path>
      <path d="M5.78516 7.07141V14.7857C5.78516 16.2 8.35658 17.3571 11.5709 17.3571C14.7852 17.3571 17.3566 16.2 17.3566 14.7857V7.07141" stroke="#1D1E21" stroke-width="1.5" stroke-linecap="round" stroke-linejoin="round"></path>
      <path d="M17.3569 10.9286C17.3569 12.3429 14.7854 13.5 11.5711 13.5C8.35686 13.5 5.78544 12.3429 5.78544 10.9286M11.4426 1.92859C9.94021 1.00143 8.19143 0.553025 6.42829 0.642876C3.22686 0.642876 0.642578 1.80002 0.642578 3.2143C0.642578 3.97288 1.38829 4.6543 2.57115 5.14288" stroke="#1D1E21" stroke-width="1.5" stroke-linecap="round" stroke-linejoin="round"></path>
      <path d="M2.57115 12.8572C1.38829 12.3686 0.642578 11.6872 0.642578 10.9286V3.21436" stroke="#1D1E21" stroke-width="1.5" stroke-linecap="round" stroke-linejoin="round"></path>
      <path d="M2.57115 8.99998C1.38829 8.51141 0.642578 7.82998 0.642578 7.07141" stroke="#1D1E21" stroke-width="1.5" stroke-linecap="round" stroke-linejoin="round"></path>
    </g>
    <defs>
      <clipPath id="clip0_20_6632">
        <rect width="18" height="18" fill="white"></rect>
      </clipPath>
    </defs>
  </symbol>
  <symbol fill="none" xmlns="http://www.w3.org/2000/svg" viewBox="0 0 14 14" id="filter">
    <path d="M12.8327 1.75H1.16602L5.83268 7.26833V11.0833L8.16602 12.25V7.26833L12.8327 1.75Z" stroke="white" stroke-width="1.5" stroke-linecap="round" stroke-linejoin="round"></path>
  </symbol>
  <symbol fill="none" xmlns="http://www.w3.org/2000/svg" viewBox="0 0 16 16" id="add">
    <path d="M14 8H2M8 2V14V2Z" stroke="white" stroke-width="1.5" stroke-linecap="round" stroke-linejoin="round"></path>
  </symbol>
  <symbol fill="none" xmlns="http://www.w3.org/2000/svg" viewBox="0 0 24 24" id="x">
    <path d="M18 6L6 18" stroke="#1D1E21" stroke-width="2" stroke-linecap="round" stroke-linejoin="round"></path>
    <path d="M6 6L18 18" stroke="#1D1E21" stroke-width="2" stroke-linecap="round" stroke-linejoin="round"></path>
  </symbol>
   <symbol fill="none" xmlns="http://www.w3.org/2000/svg" viewBox="0 0 16 16" id="down">
    <path d="M4 6L8 10L12 6" stroke="#1D1E21" stroke-width="1.5" stroke-linecap="round" stroke-linejoin="round"></path>
  </symbol>
  <symbol fill="none" xmlns="http://www.w3.org/2000/svg" viewBox="0 0 16 16" id="up">
    <path d="M4 10L8 6L12 10" stroke="#1D1E21" stroke-width="1.5" stroke-linecap="round" stroke-linejoin="round"></path>
  </symbol>
  <symbol fill="none" xmlns="http://www.w3.org/2000/svg" viewBox="0 0 32 32" id="del">
    <rect x="0.5" y="0.5" width="31" height="31" rx="15.5" stroke="#E85050" stroke-opacity="0.5"></rect>
    <path d="M10 12H11.3333H22" stroke="#E85050" stroke-width="1.3" stroke-linecap="round" stroke-linejoin="round"></path>
    <path d="M20.6667 12V21.3333C20.6667 21.6869 20.5262 22.0261 20.2761 22.2761C20.0261 22.5262 19.687 22.6666 19.3333 22.6666H12.6667C12.313 22.6666 11.9739 22.5262 11.7239 22.2761C11.4738 22.0261 11.3333 21.6869 11.3333 21.3333V12M13.3333 12V10.6666C13.3333 10.313 13.4738 9.97389 13.7239 9.72384C13.9739 9.47379 14.313 9.33331 14.6667 9.33331H17.3333C17.687 9.33331 18.0261 9.47379 18.2761 9.72384C18.5262 9.97389 18.6667 10.313 18.6667 10.6666V12" stroke="#E85050" stroke-width="1.3" stroke-linecap="round" stroke-linejoin="round"></path>
    <path d="M14.6667 15.3333V19.3333" stroke="#E85050" stroke-width="1.3" stroke-linecap="round" stroke-linejoin="round"></path>
    <path d="M17.3333 15.3333V19.3333" stroke="#E85050" stroke-width="1.3" stroke-linecap="round" stroke-linejoin="round"></path>
  </symbol>
  <symbol fill="none" xmlns="http://www.w3.org/2000/svg" viewBox="0 0 32 32" id="edit">
    <rect x="0.5" y="0.5" width="31" height="31" rx="15.5" stroke="#59B17A" stroke-opacity="0.5"></rect>
    <g clip-path="url(#clip0_0_1389)">
      <path d="M19.3348 10.001C19.5099 9.82586 19.7178 9.68696 19.9466 9.5922C20.1753 9.49744 20.4205 9.44867 20.6682 9.44867C20.9158 9.44867 21.161 9.49744 21.3898 9.5922C21.6185 9.68696 21.8264 9.82586 22.0015 10.001C22.1766 10.176 22.3155 10.3839 22.4102 10.6127C22.505 10.8415 22.5538 11.0867 22.5538 11.3343C22.5538 11.5819 22.505 11.8271 22.4102 12.0559C22.3155 12.2847 22.1766 12.4925 22.0015 12.6676L13.0015 21.6676L9.33482 22.6676L10.3348 19.001L19.3348 10.001Z" stroke="#59B17A" stroke-width="1.3" stroke-linecap="round" stroke-linejoin="round"></path>
    </g>
    <defs>
      <clipPath id="clip0_0_1389">
        <rect width="16" height="16" fill="white" transform="translate(8 8)"></rect>
      </clipPath>
    </defs>
  </symbol>
  <symbol fill="none" xmlns="http://www.w3.org/2000/svg" viewBox="0 0 14 14" id="edit-2">
    <g clip-path="url(#clip0_0_588)">
      <path d="M9.91797 1.75083C10.0712 1.59762 10.2531 1.47609 10.4532 1.39317C10.6534 1.31025 10.868 1.26758 11.0846 1.26758C11.3013 1.26758 11.5159 1.31025 11.716 1.39317C11.9162 1.47609 12.0981 1.59762 12.2513 1.75083C12.4045 1.90404 12.526 2.08592 12.609 2.2861C12.6919 2.48628 12.7346 2.70082 12.7346 2.91749C12.7346 3.13416 12.6919 3.34871 12.609 3.54889C12.526 3.74907 12.4045 3.93095 12.2513 4.08416L4.3763 11.9592L1.16797 12.8342L2.04297 9.62583L9.91797 1.75083Z" stroke="#59B17A" stroke-width="1.3" stroke-linecap="round" stroke-linejoin="round"></path>
    </g>
    <defs>
      <clipPath id="clip0_0_588">
        <rect width="14" height="14" fill="white"></rect>
      </clipPath>
    </defs>
  </symbol>
   <symbol fill="none" xmlns="http://www.w3.org/2000/svg" viewBox="0 0 16 16" id="calendar">
    <path d="M12.6667 2.66602H3.33333C2.59695 2.66602 2 3.26297 2 3.99935V13.3327C2 14.0691 2.59695 14.666 3.33333 14.666H12.6667C13.403 14.666 14 14.0691 14 13.3327V3.99935C14 3.26297 13.403 2.66602 12.6667 2.66602Z" stroke="#59B17A" stroke-width="1.5" stroke-linecap="round" stroke-linejoin="round"></path>
    <path d="M10.666 1.33398V4.00065" stroke="#59B17A" stroke-width="1.5" stroke-linecap="round" stroke-linejoin="round"></path>
    <path d="M5.33398 1.33398V4.00065" stroke="#59B17A" stroke-width="1.5" stroke-linecap="round" stroke-linejoin="round"></path>
    <path d="M2 6.66602H14" stroke="#59B17A" stroke-width="1.5" stroke-linecap="round" stroke-linejoin="round"></path>
  </symbol>
</svg>

























